HIERARCHY
ROOT Hips
{
	OFFSET 0.00 0.00 0.00
	CHANNELS 6 Xposition Yposition Zposition Xrotation Yrotation Zrotation
	JOINT RightUpLeg
	{
		OFFSET -4.47808 0.00000 0.00000
		CHANNELS 3 Xrotation Yrotation Zrotation
		JOINT RightLeg
		{
			OFFSET 0.00000 -16.40577 0.00000
			CHANNELS 3 Xrotation Yrotation Zrotation
			JOINT RightFoot
			{
				OFFSET 0.00000 -14.64414 0.00000
				CHANNELS 3 Xrotation Yrotation Zrotation
				JOINT RightToeBase
				{
					OFFSET 0.00000 -1.50274 5.60831
					CHANNELS 3 Xrotation Yrotation Zrotation
					End Site
					{
						OFFSET 0.00000 0.00000 2.95275
					}
				}
			}
		}
	}
	JOINT LeftUpLeg
	{
		OFFSET 4.47808 0.00000 0.00000
		CHANNELS 3 Xrotation Yrotation Zrotation
		JOINT LeftLeg
		{
			OFFSET 0.00000 -16.40577 0.00000
			CHANNELS 3 Xrotation Yrotation Zrotation
			JOINT LeftFoot
			{
				OFFSET 0.00000 -14.64414 0.00000
				CHANNELS 3 Xrotation Yrotation Zrotation
				JOINT LeftToeBase
				{
					OFFSET 0.00000 -1.50274 5.60831
					CHANNELS 3 Xrotation Yrotation Zrotation
					End Site
					{
						OFFSET 0.00000 0.00000 2.95275
					}
				}
			}
		}
	}
	JOINT Spine
	{
		OFFSET 0.00000 6.06821 0.00000
		CHANNELS 3 Xrotation Yrotation Zrotation
		JOINT RightShoulder
		{
			OFFSET 0.00000 10.01392 0.00000
			CHANNELS 3 Xrotation Yrotation Zrotation
			JOINT RightArm
			{
				OFFSET -7.19022 0.00000 0.00000
				CHANNELS 3 Xrotation Yrotation Zrotation
				JOINT RightForeArm
				{
					OFFSET -10.17747 0.00000 0.00000
					CHANNELS 3 Yrotation Zrotation Xrotation
					JOINT RightHand
					{
						OFFSET -8.39211 0.00000 0.00000
						CHANNELS 3 Xrotation Yrotation Zrotation
						End Site
						{
							OFFSET -3.93700 0.00000 0.00000
						}
						JOINT RightHandThumb1
						{
							OFFSET 0.00000 0.00000 0.00000
							CHANNELS 3 Xrotation Zrotation Yrotation
							End Site
							{
								OFFSET 0.00000 0.00000 3.93700
							}
						}
					}
				}
			}
		}
		JOINT LeftShoulder
		{
			OFFSET 0.00000 10.01392 0.00000
			CHANNELS 3 Xrotation Yrotation Zrotation
			JOINT LeftArm
			{
				OFFSET 7.19022 0.00000 0.00000
				CHANNELS 3 Xrotation Yrotation Zrotation
				JOINT LeftForeArm
				{
					OFFSET 10.17747 0.00000 0.00000
					CHANNELS 3 Yrotation Zrotation Xrotation
					JOINT LeftHand
					{
						OFFSET 8.39211 0.00000 0.00000
						CHANNELS 3 Xrotation Yrotation Zrotation
						End Site
						{
							OFFSET 3.93700 0.00000 0.00000
						}
						JOINT LeftHandThumb1
						{
							OFFSET 0.00000 0.00000 0.00000
							CHANNELS 3 Xrotation Zrotation Yrotation
							End Site
							{
								OFFSET 0.00000 0.00000 3.93700
							}
						}
					}
				}
			}
		}
		JOINT Head
		{
			OFFSET 0.00000 15.77748 0.00000
			CHANNELS 3 Xrotation Yrotation Zrotation
			End Site
			{
				OFFSET 0.00000 4.52755 0.00000
			}
		}
	}
}
MOTION
Frames: 7
Frame Time: 0.008333
 -3.5785 32.9960 -2.1659 9.6606 -7.3244 3.1736 -4.3482 -5.4296 -3.4368 3.1025 -0.0000 0.0000 -13.2656 -3.9753 -1.7917 4.1611 0.0000 -0.0000 -2.7785 3.5775 1.7668 4.2037 -0.0000 -0.0000 -13.6124 9.9565 -11.3128 9.5166 0.0000 -0.0000 -12.8514 8.5296 -2.2195 2.5384 -3.8012 -12.9466 -45.0785 -18.5247 65.8426 104.7920 0.0000 -33.3351 2.2065 23.8934 -5.4340 32.8623 0.0000 -24.3270 1.3734 16.4233 11.8065 -7.1728 -35.4843 -88.8160 -15.0507 -0.0000 14.2473 0.0069 0.0361 -10.8330 33.1476 -0.0000 26.2537 8.9968 -19.2989 0.3318
 -3.5806 32.9952 -2.1653 9.6435 -7.3135 3.1568 -4.3274 -5.4450 -3.4200 3.1040 0.0000 -0.0000 -13.2723 -3.9734 -1.7863 4.1276 0.0000 0.0000 -2.7943 3.6565 1.7892 4.2622 -0.0000 -0.0000 -13.6473 9.8692 -11.3190 9.4696 0.0000 0.0000 -12.8346 8.5347 -2.1993 2.5748 -3.8207 -12.9164 -45.0192 -18.5555 65.7843 104.7117 0.0000 -33.4167 2.1181 23.9424 -5.2073 32.8623 0.0000 -24.3270 1.4139 16.4432 11.7912 -7.1663 -35.5397 -88.8300 -15.0578 -0.0000 14.2463 0.0105 0.0548 -10.8396 33.1476 -0.0000 26.2537 9.0036 -19.3182 0.2982
 -3.5808 32.9947 -2.1652 9.6348 -7.3069 3.1644 -4.3172 -5.4259 -3.4264 3.1040 0.0000 -0.0000 -13.2785 -3.9949 -1.8340 4.1732 0.0000 0.0000 -2.7970 3.6608 1.7803 4.2837 0.0000 -0.0000 -13.6522 9.8688 -11.3277 9.4962 -0.0000 0.0000 -12.8200 8.5427 -2.2088 2.6128 -3.8357 -12.8839 -44.9690 -18.6298 65.7100 104.6448 0.0000 -33.4829 2.1644 23.9769 -5.3135 32.8623 0.0000 -24.3270 1.4264 16.4573 11.7914 -7.1342 -35.5588 -88.8457 -15.0594 -0.0000 14.2339 0.0142 0.0736 -10.9001 33.1476 -0.0000 26.2537 9.0083 -19.3336 0.2804
 -3.5805 32.9946 -2.1646 9.6261 -7.2999 3.1650 -4.3092 -5.4111 -3.4293 3.1130 0.0000 0.0000 -13.2903 -4.0104 -1.8295 4.1730 -0.0000 0.0000 -2.8042 3.6666 1.7795 4.3122 -0.0000 0.0000 -13.6606 9.8603 -11.3456 9.4756 -0.0000 0.0000 -12.8086 8.5561 -2.2016 2.6843 -3.8811 -12.8538 -44.9588 -18.7004 65.6248 104.5937 0.0000 -33.5720 2.2209 23.9057 -5.4666 32.8623 0.0000 -24.3270 1.4549 16.4710 11.7703 -7.1161 -35.5449 -88.8538 -15.0673 -0.0000 14.2636 0.0173 0.0898 -10.9181 33.1476 -0.0000 26.2537 9.0133 -19.3499 0.2571
 -3.5807 32.9940 -2.1642 9.6130 -7.3010 3.1646 -4.2960 -5.4075 -3.4307 3.1163 -0.0000 0.0000 -13.3033 -3.9992 -1.8469 4.1807 -0.0000 -0.0000 -2.7962 3.6894 1.7816 4.3264 -0.0000 0.0000 -13.6751 9.8334 -11.3474 9.4695 -0.0000 0.0000 -12.7878 8.5707 -2.1911 2.7299 -3.9154 -12.8347 -44.9364 -18.8350 65.5347 104.5620 0.0000 -33.6749 2.1146 24.0105 -5.1849 32.8623 0.0000 -24.3270 1.4509 16.4786 11.7656 -7.0685 -35.5646 -88.8661 -15.0766 -0.0000 14.2653 0.0108 0.0562 -10.8928 33.1476 -0.0000 26.2537 9.0019 -19.3777 0.2285
 -3.5792 32.9937 -2.1639 9.6080 -7.2955 3.1668 -4.2967 -5.4081 -3.4365 3.1278 -0.0000 -0.0000 -13.3164 -4.0070 -1.8455 4.1958 0.0000 0.0000 -2.8065 3.6959 1.7754 4.3559 -0.0000 -0.0000 -13.6925 9.8278 -11.3246 9.4900 0.0000 0.0000 -12.7768 8.5712 -2.1771 2.8080 -3.9697 -12.8180 -44.9592 -18.9686 65.4449 104.5342 0.0000 -33.7020 2.1645 24.0180 -5.3052 32.8623 0.0000 -24.3270 1.4838 16.4971 11.7407 -7.0515 -35.5404 -88.8770 -15.0900 -0.0000 14.3140 0.0042 0.0218 -10.9189 33.1476 -0.0000 26.2537 8.9887 -19.3800 0.1961
 -3.5785 32.9936 -2.1634 9.6035 -7.2936 3.1651 -4.2907 -5.3885 -3.4374 3.1303 0.0000 0.0000 -13.3140 -4.0170 -1.8477 4.1705 0.0000 -0.0000 -2.8074 3.6910 1.7762 4.3670 0.0000 -0.0000 -13.6885 9.8314 -11.3598 9.4556 -0.0000 -0.0000 -12.7696 8.5596 -2.1581 2.8780 -4.0013 -12.7977 -44.9865 -19.1553 65.3216 104.5419 0.0000 -33.8126 2.0717 23.9720 -5.0878 32.8623 0.0000 -24.3270 1.5078 16.5145 11.7175 -7.0192 -35.4601 -88.8875 -15.1030 -0.0000 14.3737 0.0112 0.0577 -10.9475 33.1476 -0.0000 26.2537 8.9779 -19.3878 0.1629
